<svg width="36" height="30" viewBox="0 0 36 30" fill="none" xmlns="http://www.w3.org/2000/svg">
<path id="Vector" d="M24.9554 3.65361C23.5913 3.65338 22.2817 4.18865 21.3084 5.14423C20.335 6.09982 19.7757 7.39933 19.7507 8.76314L19.7005 11.5898C19.6975 11.7416 19.6625 11.891 19.5978 12.0283C19.533 12.1656 19.44 12.2876 19.3247 12.3864C19.2095 12.4852 19.0747 12.5586 18.9291 12.6016C18.7835 12.6446 18.6305 12.6564 18.4801 12.6361L15.6785 12.2556C11.9922 11.7531 8.46024 10.0553 5.07184 7.23225C3.9986 13.1727 6.09482 17.288 11.1433 20.4628L14.2787 22.4334C14.4277 22.527 14.5514 22.6557 14.6391 22.8082C14.7269 22.9608 14.7759 23.1325 14.7819 23.3083C14.7879 23.4841 14.7508 23.6588 14.6737 23.8169C14.5966 23.9751 14.4819 24.112 14.3397 24.2156L11.4825 26.3028C13.1821 26.4087 14.7956 26.3333 16.1344 26.0677C24.6018 24.3771 30.2318 18.0059 30.2318 7.49607C30.2318 6.63821 28.4156 3.65361 24.9554 3.65361ZM16.1613 8.69673C16.1926 6.96673 16.7336 5.2844 17.7165 3.8604C18.6995 2.43639 20.0806 1.33399 21.6871 0.691209C23.2935 0.0484305 25.0539 -0.106156 26.7478 0.246805C28.4417 0.599765 29.9939 1.44459 31.2099 2.6755C32.486 2.66652 33.5718 2.98957 36 1.51791C35.3988 4.46123 35.1026 5.73906 33.8212 7.49607C33.8212 21.2112 25.3915 27.8803 16.8379 29.5871C10.9728 30.7573 2.44439 28.8351 0 26.2831C1.24553 26.1861 6.3066 25.6423 9.23197 23.5013C6.75707 21.8699 -3.09407 16.073 3.37943 0.487749C6.41787 4.03588 9.49938 6.45156 12.6222 7.73298C14.7004 8.58546 15.2101 8.56751 16.1631 8.69853L16.1613 8.69673Z" fill="#FEFAF8"/>
</svg>
