<svg width="36" height="36" viewBox="0 0 36 36" fill="none" xmlns="http://www.w3.org/2000/svg">
<path id="Vector" d="M19.8 32.2884C23.4311 31.8264 26.7501 29.999 29.0823 27.1778C31.4145 24.3566 32.5849 20.7532 32.3557 17.0999C32.1265 13.4467 30.5148 10.0179 27.8483 7.51028C25.1817 5.00269 21.6604 3.60454 18 3.6C14.3351 3.59727 10.8071 4.99201 8.13481 7.50002C5.46251 10.008 3.84703 13.4406 3.61754 17.0983C3.38804 20.7559 4.56181 24.3635 6.89966 27.1859C9.23751 30.0082 12.5635 31.833 16.2 32.2884V21.6H12.6V18H16.2V15.0228C16.2 12.6162 16.452 11.7432 16.92 10.863C17.381 9.99213 18.0935 9.28024 18.9648 8.82C19.6524 8.451 20.5074 8.2296 22.0014 8.1342C22.5936 8.0964 23.3604 8.1432 24.3018 8.2782V11.6982H23.4C21.7494 11.6982 21.0672 11.7756 20.6604 11.9934C20.4177 12.1182 20.22 12.3159 20.0952 12.5586C19.8792 12.9654 19.8 13.3686 19.8 15.021V18H24.3L23.4 21.6H19.8V32.2884ZM18 36C8.0586 36 0 27.9414 0 18C0 8.0586 8.0586 0 18 0C27.9414 0 36 8.0586 36 18C36 27.9414 27.9414 36 18 36Z" fill="#FEFAF8"/>
</svg>
