<svg width="64" height="64" viewBox="0 0 64 64" fill="none" xmlns="http://www.w3.org/2000/svg">
<g id="&#208;&#160;&#208;&#181;&#209;&#129;&#209;&#131;&#209;&#128;&#209;&#129; 2 3" clip-path="url(#clip0_514_257)">
<g id="&#208;&#161;&#208;&#187;&#208;&#190;&#208;&#185; 2">
<path id="Vector" d="M35.8752 0.159737C40.1967 0.159737 44.5206 0.152912 48.8421 0.159737C52.1123 0.166563 54.2469 2.29156 54.2743 5.56097C54.2879 7.26734 54.2811 8.97144 54.2788 10.6778C54.272 13.9973 52.3672 16.1223 49.0196 16.2975C46.373 16.4363 43.715 16.3612 41.0615 16.3725C39.1658 16.3816 37.2702 16.3566 35.3745 16.3771C31.1463 16.4226 27.7623 19.8126 27.7646 23.983C27.7646 28.2375 31.1349 31.6025 35.4337 31.6093C42.1834 31.6207 48.9309 31.6048 55.6806 31.6161C59.7109 31.623 63.013 34.3031 63.7435 38.1185C64.5081 42.1092 62.5669 45.8109 58.771 47.2829C57.6377 47.722 56.3406 47.8744 55.1117 47.9017C50.8698 47.9905 48.0889 50.7912 48.1344 55.0389C48.1458 56.0969 48.2095 57.1753 48.032 58.2082C47.4699 61.4731 44.7117 63.8006 41.4074 63.8256C36.592 63.8597 31.7766 63.8552 26.9612 63.8279C23.9709 63.8097 21.7726 61.6324 21.6634 58.5677C21.5928 56.5997 21.6042 54.6249 21.6611 52.6546C21.7499 49.5694 23.7798 47.565 27.009 47.2465C27.8738 47.1623 28.759 47.0963 29.5828 46.8506C33.2012 45.7722 35.354 42.2616 34.7988 38.4553C34.2822 34.9219 30.9778 32.0211 27.3435 32.0029C21.1627 31.9733 14.9842 32.0075 8.80337 31.9915C4.81633 31.9824 1.74185 29.7983 0.685923 26.2809C-0.866108 21.1072 3.02762 15.9721 8.57125 15.9266C10.0709 15.9152 11.5274 15.8265 12.8427 15.0143C14.9774 13.6924 16.0697 11.7676 16.1357 9.26494C16.1562 8.47091 16.1129 7.67232 16.1175 6.87829C16.1266 3.06739 18.9621 0.193864 22.7944 0.166563C27.1547 0.13471 31.5149 0.159737 35.8752 0.159737Z" fill="white"/>
<path id="Vector_2" d="M9.94134 53.4028C4.46599 53.3914 0.219521 49.0573 0.242279 43.5013C0.26276 38.2047 4.67991 33.8751 10.0369 33.8956C15.4212 33.9161 19.7838 38.323 19.7565 43.7106C19.7292 49.1187 15.3826 53.4097 9.94134 53.4006V53.4028Z" fill="white"/>
</g>
</g>
<defs>
<clipPath id="clip0_514_257">
<rect width="63.6606" height="63.7" fill="white" transform="translate(0.242188 0.150391)"/>
</clipPath>
</defs>
</svg>
